<?xml version="1.0"?>
<svg width="85" height="85" xmlns="http://www.w3.org/2000/svg" xmlns:svg="http://www.w3.org/2000/svg">
 <g>
  <title>Layer 1</title>
  <g id="svg_1">
   <path class="gi-Logo-o" d="m11.9026,49.50185c-0.5,-2.3 -0.8,-4.6 -0.8,-6.8c0,-14.5 9.8,-27.2 23.8,-30.9c1,-0.3 1.7,-1.2 1.7,-2.2l0,-5c0,-0.7 -0.3,-1.4 -0.9,-1.8c-0.5,-0.4 -1.2,-0.6 -1.9,-0.4c-19,4.3 -32.2,20.9 -32.2,40.4c0,3.5 0.4,6.9 1.3,10.3c0.2,0.7 0.6,1.2 1.3,1.5c0.3,0.1 0.6,0.2 0.9,0.2c0.4,0 0.7,-0.1 1.1,-0.3l4.4,-2.3c1,-0.7 1.5,-1.7 1.3,-2.7z" id="svg_2" fill="white"/>
   <path class="gi-Logo-o" d="m72.8026,64.40185l-4.4,-2.3c-0.9,-0.5 -2.1,-0.3 -2.8,0.5c-6.1,6.7 -14.7,10.6 -23.8,10.6c-9,0 -17.7,-3.9 -23.8,-10.6c-0.7,-0.8 -1.9,-1 -2.8,-0.5l-4.4,2.3c-0.6,0.3 -1.1,0.9 -1.2,1.6c-0.1,0.7 0,1.4 0.5,1.9c7.9,9.3 19.4,14.7 31.7,14.7c12.2,0 23.7,-5.3 31.6,-14.7c0.4,-0.5 0.6,-1.2 0.5,-1.9c-0.1,-0.7 -0.5,-1.3 -1.1,-1.6z" id="svg_3" fill="white"/>
   <path class="gi-Logo-o" d="m50.9026,2.20185c-0.7,-0.2 -1.4,0 -1.9,0.4c-0.6,0.4 -0.9,1.1 -0.9,1.8l0,5c0,1 0.7,2 1.7,2.2c14,3.7 23.8,16.4 23.8,30.9c0,2.2 -0.3,4.6 -0.8,6.9c-0.2,1 0.3,2.1 1.2,2.6l4.4,2.3c0.3,0.2 0.7,0.3 1.1,0.3c0.3,0 0.6,-0.1 0.9,-0.2c0.6,-0.3 1.1,-0.8 1.3,-1.5c0.9,-3.4 1.3,-6.8 1.3,-10.3c0,-19.4 -13.2,-36 -32.1,-40.4z" id="svg_4" fill="white"/>
  </g>
 </g>
</svg>